<?xml version="1.0" encoding="utf-8"?>
<!-- Generator: Adobe Illustrator 24.1.2, SVG Export Plug-In . SVG Version: 6.00 Build 0)  -->
<svg version="1.1" id="Layer_1" xmlns="http://www.w3.org/2000/svg" xmlns:xlink="http://www.w3.org/1999/xlink" x="0px" y="0px"
	 viewBox="0 0 3000 3000" style="enable-background:new 0 0 3000 3000;" xml:space="preserve">
<g>
	<path d="M1424.29,868.35c-0.2,2.37,2.38,26.15,38.04,26.15c28.53,0,35.66-35.66,30.91-42.79c-2.38-4.75-11.91-9.92-26.15-9.51
		C1448.92,842.72,1425.63,852.37,1424.29,868.35z"/>
	<path d="M1531.65,944.43c19.02,0,45.17-28.53,45.17-49.93c0-16.64-4.75-35.66-28.53-35.66c-7.43,0-13.7,1.86-18.81,4.41
		c-11.24,5.62-18.94,17.16-21.65,21.22c-5.71,8.57-14.21,23.86-11.85,36.18C1497.43,931.19,1512.64,944.43,1531.65,944.43z"/>
	<path d="M1634.53,1361.67c0.34-1.28,2.05-1.56,2.87-0.52c12.5,15.98,102.1,130.06,135.24,160.99
		c35.66,33.28,85.59,73.7,123.63,85.59c38.04,11.89,130.76,21.4,232.99,178.31c0,0-4.75-78.45-66.57-121.25
		c-61.81-42.79-61.81-49.93-57.06-76.08c4.75-26.15,95.1-230.61,242.5-199.7c147.4,30.91,161.66,137.89,156.91,166.42
		c-4.75,28.53-23.77,180.68-183.06,221.1c0,0,129.57-5.94,167.61,8.32c26.15,9.51,39.23,24.96,39.23,24.96s-61.81,16.64-114.12,73.7
		c-52.3,57.06-175.93,147.4-297.18,159.29c0,0,30.91-35.66,45.17-57.06c14.26-21.4,16.64-30.91,23.77-38.04
		c0,0-30.91,14.26-57.06,35.66c-26.15,21.4-47.55,35.66-68.94,35.66c-21.4,0-73.7-4.75-183.06-111.74
		c-109.36-106.98-168.8-225.85-187.82-278.16c-10.2-28.05-31.87-84.09-32.09-110.55c-0.1-11.8,10.75-29.21,19.02-45.17
		c7.75-14.96,12.8-28.91,16.64-28.53c25.16,2.47,70.13,67.76,70.13,67.76s-42.27-70.44-53.01-107.09
		c-1.25-4.27,2.14-9.66,4.27-12.97c2.74-4.26,4.85-5.69,7.7-3.31c15.4,12.92,36.29,47.29,36.29,47.29
		S1630.77,1375.91,1634.53,1361.67z"/>
	<path d="M1524.2,1597.03c-0.23-6.39,8.9-37.65,11.89-35.66c7.13,4.75,40.42,185.44,206.83,375.63
		c80.43,89.26,196.49,156.37,228.23,161.66c32.35,5.39,177.58-42.72,273.4-104.61c73.21-47.28,105.24-112.45,109.36-109.36
		c9.51,7.13,0,54.68-7.13,68.94c-36.85,74.89-273.4,173.55-344.84,192.43c-21.06,4.58-41.09,7.09-55.75,3.71
		c-81.73-25.69-197.11-143.13-275.03-241.17c-41.07-51.67-101.04-171.57-111.43-199.12
		C1541.53,1661.27,1524.77,1612.99,1524.2,1597.03z"/>
	<path d="M2445.45,1419.91c0,0,33.28-85.57,3.57-184.99s-79.64-137.17-101.04-134.65c-21.4,2.52-73.7,153.53-54.68,236.59
		C2312.31,1419.91,2445.45,1419.91,2445.45,1419.91z"/>
	<path d="M2434.75,1475.78c0,0,168.8,104.61,14.26,306.69c-42.79-33.28-93.14-32.31-94.73-34.46c-1.45-1.96-1.26-7.72,1.93-11.07
		C2377.75,1714.33,2463.28,1651.71,2434.75,1475.78z"/>
	<path d="M1359.04,1194.21c-18.89,0.38-37.21,19.39-30.78,37.16c2.9,8.02,5.64,17.74,7.65,29.32c7.36,42.32,7.58,57.48-7.73,64.12
		c-8.85,3.84-23.95-47.24-46-90c-17-32.98-41.66-56.8-48.91-72.75c-21.58-47.33,11.02-54.65,11.27-73.12s-10.21-26.52-7.36-42.32
		c2.85-15.8,23.27-20.67,26.15-39.11s-1.97-13.46,3.62-37.14c5.59-23.68,20.15-11.48,30.94-29.81c10.8-18.33,8.44-39.47,16.46-47.28
		c2.96-2.89,54.93-19.02,97.03-0.69c63.79,27.22,57.79,39.22,89.79,61.22C1532.28,970.64,1549,990,1541,1011
		c-4.45,11.38-26.29,6.4-26.29,6.4s-1.45,1.79,3.47,4.42c20.59,11,73,39.41,61,57c-11.51,16.86-72.19,2.64-98.78-1.77
		c-7.78-1.29-7.91,0.35-7.91,0.35c0.3,0.27,109.97,37.34,92.81,67.16c-9.48,24.2-132.27-14.82-133.82-6.37
		c0,0,70.54,22.99,78.34,41.36c2.13,5.02-0.44,17.39-16.53,18.07C1465.35,1201.34,1371.49,1193.96,1359.04,1194.21z"/>
	<path d="M1704.88,1095.4c0,0,40.42-59.44-23.77-97.47c0,0,16.64-52.3-16.64-68.94c-19.31-9.66-48.23-12.11-69.1,1
		c-17.37,10.5-33.05,31.27-40.36,49.02c-0.96,2.33,2.74,11.08,4,19c1.17,7.38-0.16,14.01,1,15c14.55,12.34,37.9,29.64,37.9,89.53
		c0,51.72-49.93,115.47-148.44,115.47c-8.72-0.52-16.92,4.03-21.05,11.73c-9.32,17.36-23.05,28.69-27.83,74.88
		c0,0,1.62-76.32-19.29-92.07c-4.39-3.31-25.89-7.78-29.59,18.63c-1.07,20.53,26.37,47.68,1.33,113.86
		c-37.12,98.98-218.48,226.52-279.59,336.1c18.67-60.95,37.23-165.47-18.85-245.36c-13.23-18.85-30.78-34.47-51.88-43.68
		c-93.98-41.02-173.89,65.86-173.89,65.86s-2.38-156.91-33.28-242.5s-79.64-131.95-110.55-131.95
		c-37.87,1.99-107.1,43.44-159.29,140.27c-41.18,76.4-70.39,192.06,16.64,366.12c-90.88,90.88,20.16,279.46,325.86,346.84
		c14.19,3.13,90.94,23.55,108.27,32.52c66.12,34.25,75.82,78.28,75.82,78.28s-35.66-35.66-76.08-47.55
		c-40.42-11.89-83.21-19.02-97.47-4.75c-14.26,14.26,49.93,71.32,49.93,71.32s-166.42-59.44-204.46-76.08
		c-38.04-16.64-45.17-14.26-49.93-7.13s21.4,40.42,26.15,45.17c4.75,4.75,10.92,6.89,23.52,12.41
		c56.5,24.74,217.78,91.01,296.24,105.28s142.64,23.77,187.82-23.77c45.17-47.55,142.64-185.44,175.93-240.12
		c33.28-54.68,87.96-171.17,106.98-261.51c19.02-90.34,111.74-285.29,140.27-306.69c28.53-21.4,87.96-71.32,95.1-121.25
		C1733.41,1142.94,1721.53,1107.28,1704.88,1095.4z M723.48,1678.91c-46.68-55.83-80.4-71.57-104.1-68.56
		c-23.7,3.01-44.09,82.53-58.02,86.53c-6.77,1.94-21.7-21.74-16.64-49.93c5.35-29.77,30.91-64.19,30.91-64.19
		s-106.98-175.93-28.53-344.72c35.83-91.76-33.28,240.12,71.32,325.7c78.45,45.17,145.02-28.53,145.02-28.53
		s-32.42,69.77-17.27,102.66c15.15,32.89,88.8,118.91,103.45,132.79C849.6,1770.66,770.16,1734.74,723.48,1678.91z M1392.26,1550.67
		c0,0-7.13,73.7-35.66,130.76c-28.53,57.06-73.7,80.83-73.7,80.83S1370.86,1614.86,1392.26,1550.67z M915.59,1428.23
		c0,0,54.75-22.84,97.47,19.02c42.72,41.86,24.94,91.89,24.94,91.89S1017.81,1440.12,915.59,1428.23z M1456.45,1631.5
		c-14.26,40.42-66.57,154.53-118.87,232.99c-52.3,78.45-99.85,111.74-116.49,121.25c-16.64,9.51-52.3,38.04-54.68,54.68
		c-2.38,16.64-35.66,19.02-47.55-2.38c-11.89-21.4-45.17-49.93-64.19-68.94c-19.02-19.02-42.79-54.68-47.55-71.32l78.45-19.02
		c0,0,16.64,19.02,61.81,19.02c45.17,0,178.31-54.68,244.87-197.32c66.57-142.64,114.12-247.25,140.27-287.67
		C1532.52,1412.78,1470.71,1591.08,1456.45,1631.5z M1622.09,1025.33c0,0,17.72-20.96,36.93-15.92c2.04,0.53-24.77,40.79-38.7,38.52
		C1606.38,1045.66,1622.09,1025.33,1622.09,1025.33z M1621.5,1149.79c-10.99-13.16,4.61-40.78,51.71-49.18
		C1673.21,1100.61,1632.49,1162.95,1621.5,1149.79z M1632.37,1243.98c-14.26-28.53,61.81-49.93,61.81-49.93
		C1691.81,1210.7,1646.64,1272.51,1632.37,1243.98z"/>
</g>
</svg>
