<svg xmlns="http://www.w3.org/2000/svg" viewBox="0 0 232 1000" role="img" aria-label="!">
  <defs>
    <path id="glyph_0021" d="M 112.53 657.92 C 110.68 658.02 106.3 658.63 104.44 659.08 C 102.57 659.52 96.94 661.39 95.33 662.02 C 93.71 662.65 90.64 664.28 89.54 664.91 C 88.45 665.54 86.03 667.21 85.21 667.8 C 84.39 668.4 82.83 669.62 81.98 670.4 C 81.13 671.19 78.45 673.71 77.35 675.03 C 76.25 676.35 72.89 680.87 71.86 682.6 C 70.82 684.33 68.53 688.99 67.81 690.98 C 67.08 692.97 65.51 699.28 65.16 700.96 C 64.81 702.64 64.64 705.2 64.58 706.45 C 64.52 707.71 64.45 711.04 64.58 712.58 C 64.7 714.12 65.29 718.81 65.74 720.67 C 66.18 722.54 68.11 728.29 68.67 729.78 C 69.24 731.27 70.39 733.37 70.99 734.41 C 71.58 735.44 73.54 738.44 74.17 739.32 C 74.8 740.21 75.92 741.64 76.77 742.55 C 77.62 743.47 81.05 746.88 82.03 747.76 C 83 748.64 84.88 750.02 85.78 750.65 C 86.69 751.28 89.47 753.01 90.41 753.54 C 91.35 754.07 93.22 755.06 94.46 755.57 C 95.7 756.07 100.06 757.74 101.83 758.22 C 103.6 758.69 108.82 759.76 110.8 759.95 C 112.78 760.14 118.09 760.14 120.1 759.95 C 122.11 759.76 127.65 758.66 129.35 758.22 C 131.06 757.77 134.65 756.36 135.86 755.86 C 137.07 755.35 139.48 754.11 140.49 753.54 C 141.49 752.98 144.2 751.28 145.11 750.65 C 146.02 750.02 147.9 748.64 148.87 747.76 C 149.85 746.88 153.15 743.61 154.13 742.51 C 155.1 741.4 157.23 738.53 157.88 737.59 C 158.54 736.65 159.7 734.74 160.2 733.83 C 160.7 732.92 162.07 730.22 162.51 729.2 C 162.96 728.18 163.88 725.98 164.29 724.43 C 164.71 722.88 166.1 716.3 166.32 714.89 C 166.54 713.47 166.29 711.81 166.32 711.37 C 166.35 710.93 166.61 711.66 166.61 710.84 C 166.61 710.03 166.57 705.67 166.32 703.85 C 166.07 702.03 164.68 695.54 164.29 694.02 C 163.91 692.5 163.24 690.88 162.8 689.83 C 162.36 688.78 161.08 685.81 160.2 684.33 C 159.32 682.86 155.99 677.81 154.7 676.24 C 153.41 674.66 149.4 670.83 148.29 669.83 C 147.19 668.82 145.51 667.59 144.53 666.93 C 143.56 666.28 140.36 664.32 139.33 663.75 C 138.3 663.19 136.01 662.14 134.99 661.73 C 133.97 661.32 131.39 660.33 129.93 659.95 C 128.47 659.57 123.43 658.43 121.55 658.21 C 119.66 657.99 114.39 657.83 112.53 657.92 Z M 114.85 330 C 114.16 330 115.04 330.23 114.32 330.29 C 113.6 330.35 109.36 330.45 108.2 330.58 C 107.03 330.7 104.81 331.13 103.57 331.45 C 102.33 331.76 97.89 333.14 96.77 333.52 C 95.66 333.9 94.15 334.56 93.3 334.96 C 92.46 335.37 89.91 336.71 88.97 337.28 C 88.03 337.84 85.45 339.57 84.63 340.17 C 83.81 340.76 82.28 341.95 81.4 342.77 C 80.52 343.59 77.42 346.67 76.48 347.74 C 75.54 348.81 73.41 351.65 72.72 352.65 C 72.03 353.65 70.68 355.89 70.12 356.99 C 69.56 358.09 67.96 361.66 67.52 362.77 C 67.07 363.89 66.31 366.21 66.02 367.26 C 65.74 368.3 65.09 371.18 64.87 372.46 C 64.65 373.74 64.09 377.23 64 379.11 C 63.91 381 63.72 386.47 64 389.86 C 64.28 393.25 66.01 406.26 66.6 410.39 C 67.2 414.52 69.02 424.79 69.49 427.98 C 69.96 431.18 69.84 432.37 70.94 439.89 C 72.04 447.4 78.14 487.23 79.62 497.38 C 81.09 507.53 83.56 526.91 84.53 533.58 C 85.5 540.25 87.98 554.94 88.58 558.98 C 89.17 563.02 88.99 563.76 90.03 570.88 C 91.06 578 97.15 618.54 98.12 624.67 C 99.1 630.79 98.81 626.92 99.04 627.41 C 99.26 627.91 99.97 628.91 100.19 629.2 C 100.42 629.48 100.68 629.84 101.11 630.07 C 101.54 630.29 103.19 631.14 104.15 631.27 C 105.11 631.4 109.29 631.3 109.98 631.27 C 110.67 631.24 108.63 630.98 110.51 630.98 C 112.39 630.98 125.27 631.31 127.33 631.27 C 129.39 631.23 129.04 630.9 129.5 630.64 C 129.96 630.38 131.18 629.41 131.57 628.86 C 131.96 628.31 132.81 626.33 133.06 625.53 C 133.32 624.74 132.37 632.14 133.93 621.49 C 135.5 610.84 146.05 537.62 147.52 527.22 C 149 516.81 146.52 532.39 147.52 525.43 C 148.53 518.48 155.62 471.07 156.78 463.02 C 157.94 454.97 157.22 457.98 158.22 451.12 C 159.22 444.25 165.06 406.48 166.03 399.69 C 167 392.9 167.06 390.55 167.19 388.41 C 167.31 386.28 167.34 382.02 167.19 379.98 C 167.03 377.94 166.25 371.75 165.74 369.57 C 165.23 367.39 163.39 361.87 162.51 359.88 C 161.63 357.89 158.5 352.62 157.6 351.21 C 156.69 349.79 154.91 347.7 154.13 346.82 C 153.34 345.94 151.25 343.84 150.37 343.06 C 149.48 342.28 146.89 340.25 145.98 339.59 C 145.07 338.93 143.25 337.68 141.93 336.99 C 140.62 336.3 135.51 333.86 133.84 333.23 C 132.16 332.6 127.89 331.48 126.46 331.16 C 125.04 330.84 121.94 330.41 120.68 330.29 C 119.42 330.16 115.54 330 114.85 330 Z" fill-rule="evenodd"/>
    <clipPath id="fill-clip" clipPathUnits="userSpaceOnUse">
    <use href="#glyph_0021" transform="translate(0 0)"/>
    </clipPath>
    <linearGradient id="red-fill-gradient" x1="0" y1="0" x2="0" y2="1000" gradientUnits="userSpaceOnUse">
      <stop offset="0%" stop-color="#d21414"/>
      <stop offset="18%" stop-color="#a60000"/>
      <stop offset="52%" stop-color="#780000"/>
      <stop offset="78%" stop-color="#b40000"/>
      <stop offset="100%" stop-color="#4d0000"/>
    </linearGradient>
    <linearGradient id="red-gloss-gradient" x1="0" y1="0" x2="0" y2="1000" gradientUnits="userSpaceOnUse">
      <stop offset="0%" stop-color="#ffffff" stop-opacity="0.55"/>
      <stop offset="34%" stop-color="#ffffff" stop-opacity="0.16"/>
      <stop offset="68%" stop-color="#ffffff" stop-opacity="0.16"/>
      <stop offset="100%" stop-color="#ffffff" stop-opacity="0"/>
    </linearGradient>
    <linearGradient id="silver-gradient" x1="0" y1="0" x2="0" y2="1000" gradientUnits="userSpaceOnUse">
      <stop offset="0%" stop-color="#ffffff"/>
      <stop offset="8%" stop-color="#f8fbff"/>
      <stop offset="18%" stop-color="#92989d"/>
      <stop offset="28%" stop-color="#ffffff"/>
      <stop offset="43%" stop-color="#343a3f"/>
      <stop offset="55%" stop-color="#f6f9fc"/>
      <stop offset="70%" stop-color="#7e858a"/>
      <stop offset="84%" stop-color="#1e252a"/>
      <stop offset="100%" stop-color="#ffffff"/>
    </linearGradient>
    <filter id="drop-shadow" x="-40%" y="-40%" width="180%" height="180%">
      <feDropShadow dx="24" dy="30" stdDeviation="16" flood-color="#050505" flood-opacity="0.65"/>
    </filter>
    <filter id="rim-glow" x="-25%" y="-25%" width="150%" height="150%">
      <feGaussianBlur stdDeviation="3" result="blur"/>
      <feFlood flood-color="#ffffff" flood-opacity="0.34"/>
      <feComposite in2="blur" operator="in"/>
      <feMerge>
        <feMergeNode/>
        <feMergeNode in="SourceGraphic"/>
      </feMerge>
    </filter>
  </defs>
  <style>
      :root {
        --melee3-shadow-layer-paint: #050505;
        --melee3-shadow-layer-width: 112px;
        --melee3-shadow-layer-opacity: 1;
        --melee3-shadow-layer-dx: 0px;
        --melee3-shadow-layer-dy: 0px;
        --melee3-outer-depth-layer-paint: #151515;
        --melee3-outer-depth-layer-width: 92px;
        --melee3-outer-depth-layer-opacity: 1;
        --melee3-outer-depth-layer-dx: 0px;
        --melee3-outer-depth-layer-dy: 0px;
        --melee3-rim-glow-layer-paint: #ffffff;
        --melee3-rim-glow-layer-width: 82px;
        --melee3-rim-glow-layer-opacity: 1;
        --melee3-rim-glow-layer-dx: 0px;
        --melee3-rim-glow-layer-dy: 0px;
        --melee3-rim-dark-underlay-paint: #050505;
        --melee3-rim-dark-underlay-width: 88px;
        --melee3-rim-dark-underlay-opacity: 0.94;
        --melee3-rim-dark-underlay-dx: 0px;
        --melee3-rim-dark-underlay-dy: 0px;
        --melee3-rim-left-plate-paint: #f8fbff;
        --melee3-rim-left-plate-width: 104px;
        --melee3-rim-left-plate-opacity: 0.74;
        --melee3-rim-left-plate-dx: -9px;
        --melee3-rim-left-plate-dy: 7px;
        --melee3-rim-right-plate-paint: #20262c;
        --melee3-rim-right-plate-width: 96px;
        --melee3-rim-right-plate-opacity: 0.62;
        --melee3-rim-right-plate-dx: 16px;
        --melee3-rim-right-plate-dy: -11px;
        --melee3-silver-rim-layer-paint: url(#silver-gradient);
        --melee3-silver-rim-layer-width: 72px;
        --melee3-silver-rim-layer-opacity: 1;
        --melee3-silver-rim-layer-dx: 0px;
        --melee3-silver-rim-layer-dy: 0px;
        --melee3-fill-layer-paint: url(#red-fill-gradient);
        --melee3-fill-layer-opacity: 1;
        --melee3-red-gloss-layer-paint: url(#red-gloss-gradient);
        --melee3-red-gloss-layer-opacity: 0.3;
        --melee3-red-gloss-layer-height-ratio: 0.58;
        --melee3-edge-highlight-layer-paint: #ffffff;
        --melee3-edge-highlight-layer-width: 22px;
        --melee3-edge-highlight-layer-opacity: 0.72;
        --melee3-edge-highlight-layer-dx: 0px;
        --melee3-edge-highlight-layer-dy: 0px;
        --melee3-inner-highlight-layer-paint: #ffffff;
        --melee3-inner-highlight-layer-width: 16px;
        --melee3-inner-highlight-layer-opacity: 0.95;
        --melee3-inner-highlight-layer-dx: 0px;
        --melee3-inner-highlight-layer-dy: 0px;
        --melee3-inner-shadow-layer-paint: #1c1c1c;
        --melee3-inner-shadow-layer-width: 10px;
        --melee3-inner-shadow-layer-opacity: 0.58;
        --melee3-inner-shadow-layer-dx: 0px;
        --melee3-inner-shadow-layer-dy: 0px;
      }
      
      g[data-layer] { transform-box: fill-box; transform-origin: center; }
      #shadow-layer { opacity: var(--melee3-shadow-layer-opacity, 1); transform: translate(var(--melee3-shadow-layer-dx, 0px), var(--melee3-shadow-layer-dy, 0px)); }
      #shadow-layer use { stroke: var(--melee3-shadow-layer-paint); stroke-width: var(--melee3-shadow-layer-width); }
      #outer-depth-layer { opacity: var(--melee3-outer-depth-layer-opacity, 1); transform: translate(var(--melee3-outer-depth-layer-dx, 0px), var(--melee3-outer-depth-layer-dy, 0px)); }
      #outer-depth-layer use { stroke: var(--melee3-outer-depth-layer-paint); stroke-width: var(--melee3-outer-depth-layer-width); }
      #rim-glow-layer { opacity: var(--melee3-rim-glow-layer-opacity, 1); transform: translate(var(--melee3-rim-glow-layer-dx, 0px), var(--melee3-rim-glow-layer-dy, 0px)); }
      #rim-glow-layer use { stroke: var(--melee3-rim-glow-layer-paint); stroke-width: var(--melee3-rim-glow-layer-width); }
      #rim-dark-underlay { opacity: var(--melee3-rim-dark-underlay-opacity, 1); transform: translate(var(--melee3-rim-dark-underlay-dx, 0px), var(--melee3-rim-dark-underlay-dy, 0px)); }
      #rim-dark-underlay use { stroke: var(--melee3-rim-dark-underlay-paint); stroke-width: var(--melee3-rim-dark-underlay-width); }
      #rim-left-plate { opacity: var(--melee3-rim-left-plate-opacity, 1); transform: translate(var(--melee3-rim-left-plate-dx, 0px), var(--melee3-rim-left-plate-dy, 0px)); }
      #rim-left-plate use { stroke: var(--melee3-rim-left-plate-paint); stroke-width: var(--melee3-rim-left-plate-width); }
      #rim-right-plate { opacity: var(--melee3-rim-right-plate-opacity, 1); transform: translate(var(--melee3-rim-right-plate-dx, 0px), var(--melee3-rim-right-plate-dy, 0px)); }
      #rim-right-plate use { stroke: var(--melee3-rim-right-plate-paint); stroke-width: var(--melee3-rim-right-plate-width); }
      #silver-rim-layer { opacity: var(--melee3-silver-rim-layer-opacity, 1); transform: translate(var(--melee3-silver-rim-layer-dx, 0px), var(--melee3-silver-rim-layer-dy, 0px)); }
      #silver-rim-layer use { stroke: var(--melee3-silver-rim-layer-paint); stroke-width: var(--melee3-silver-rim-layer-width); }
      #fill-layer { opacity: var(--melee3-fill-layer-opacity, 1); transform: translate(var(--melee3-fill-layer-dx, 0px), var(--melee3-fill-layer-dy, 0px)); }
      #red-gloss-layer { opacity: var(--melee3-red-gloss-layer-opacity, 1); transform: translate(var(--melee3-red-gloss-layer-dx, 0px), var(--melee3-red-gloss-layer-dy, 0px)); }
      #edge-highlight-layer { opacity: var(--melee3-edge-highlight-layer-opacity, 1); transform: translate(var(--melee3-edge-highlight-layer-dx, 0px), var(--melee3-edge-highlight-layer-dy, 0px)); }
      #edge-highlight-layer use { stroke: var(--melee3-edge-highlight-layer-paint); stroke-width: var(--melee3-edge-highlight-layer-width); }
      #inner-highlight-layer { opacity: var(--melee3-inner-highlight-layer-opacity, 1); transform: translate(var(--melee3-inner-highlight-layer-dx, 0px), var(--melee3-inner-highlight-layer-dy, 0px)); }
      #inner-highlight-layer use { stroke: var(--melee3-inner-highlight-layer-paint); stroke-width: var(--melee3-inner-highlight-layer-width); }
      #inner-shadow-layer { opacity: var(--melee3-inner-shadow-layer-opacity, 1); transform: translate(var(--melee3-inner-shadow-layer-dx, 0px), var(--melee3-inner-shadow-layer-dy, 0px)); }
      #inner-shadow-layer use { stroke: var(--melee3-inner-shadow-layer-paint); stroke-width: var(--melee3-inner-shadow-layer-width); }
  </style>

  <rect id="background" width="232" height="1000" fill="#111827"/>

  <g id="shadow-layer" data-layer="shadow-layer" filter="url(#drop-shadow)">
    <use href="#glyph_0021" transform="translate(0 0)" fill="none" stroke-linejoin="round" stroke-linecap="round"/>
  </g>

  <g id="outer-depth-layer" data-layer="outer-depth-layer">
    <use href="#glyph_0021" transform="translate(0 0)" fill="none" stroke-linejoin="round" stroke-linecap="round"/>
  </g>

  <g id="rim-glow-layer" data-layer="rim-glow-layer" filter="url(#rim-glow)">
    <use href="#glyph_0021" transform="translate(0 0)" fill="none" stroke-linejoin="round" stroke-linecap="round"/>
  </g>

  <g id="rim-dark-underlay" data-layer="rim-dark-underlay">
    <use href="#glyph_0021" transform="translate(0 0)" fill="none" stroke-linejoin="round" stroke-linecap="round"/>
  </g>

  <g id="rim-left-plate" data-layer="rim-left-plate">
    <use href="#glyph_0021" transform="translate(0 0)" fill="none" stroke-linejoin="round" stroke-linecap="round"/>
  </g>

  <g id="rim-right-plate" data-layer="rim-right-plate">
    <use href="#glyph_0021" transform="translate(0 0)" fill="none" stroke-linejoin="round" stroke-linecap="round"/>
  </g>

  <g id="silver-rim-layer" data-layer="silver-rim-layer">
    <use href="#glyph_0021" transform="translate(0 0)" fill="none" stroke-linejoin="round" stroke-linecap="round"/>
  </g>

  <g id="fill-layer" data-layer="fill-layer" clip-path="url(#fill-clip)">
    <rect width="232" height="1000" fill="url(#red-fill-gradient)"/>
  </g>

  <g id="red-gloss-layer" data-layer="red-gloss-layer" clip-path="url(#fill-clip)">
    <rect width="232" height="580" fill="url(#red-gloss-gradient)"/>
  </g>

  <g id="edge-highlight-layer" data-layer="edge-highlight-layer">
    <use href="#glyph_0021" transform="translate(0 0)" fill="none" stroke-linejoin="round" stroke-linecap="round"/>
  </g>

  <g id="inner-highlight-layer" data-layer="inner-highlight-layer">
    <use href="#glyph_0021" transform="translate(0 0)" fill="none" stroke-linejoin="round" stroke-linecap="round"/>
  </g>

  <g id="inner-shadow-layer" data-layer="inner-shadow-layer">
    <use href="#glyph_0021" transform="translate(0 0)" fill="none" stroke-linejoin="round" stroke-linecap="round"/>
  </g>
</svg>
