<svg xmlns="http://www.w3.org/2000/svg" viewBox="0 0 754 1000" role="img" aria-label="L">
  <defs>
    <path id="glyph_004C" d="M 69.17 72.86 C 68.29 73.42 66.87 74.66 66.31 75.72 C 65.75 76.78 64.25 79.96 64 82.64 C 63.75 85.32 63.94 98.1 64 100.44 C 64.06 102.79 64.24 103.27 64.55 104.32 C 64.86 105.37 66.18 109.07 66.86 110.13 C 67.54 111.19 69.92 113.43 70.83 114.1 C 71.74 114.77 72.73 115.51 75.26 116.31 C 77.78 117.11 90.56 120.2 94.17 121.48 C 97.78 122.76 106.1 126.8 108.56 128.12 C 111.02 129.44 115.4 132.56 116.86 133.66 C 118.32 134.76 120.63 136.69 122.03 138.27 C 123.43 139.85 128.46 146.19 129.78 148.23 C 131.1 150.27 133.24 154.72 134.21 157.09 C 135.18 159.46 137.94 167.07 138.73 170.1 C 139.52 173.13 141.13 181.97 141.49 185.04 C 141.85 188.11 141.93 196.86 142.05 198.42 C 142.17 199.98 142.54 181.14 142.6 199.43 C 142.66 217.72 142.66 348.96 142.6 367.25 C 142.54 385.54 142.05 330.42 142.05 368.26 C 142.05 406.1 142.72 677.3 142.6 716.53 C 142.48 755.75 141.55 727.46 140.94 730.36 C 140.33 733.27 138.18 740.58 136.97 743.37 C 135.76 746.16 131.35 753.86 129.78 756.1 C 128.21 758.34 124.19 762.52 122.49 764.04 C 120.79 765.56 116.08 768.93 114.09 770.13 C 112.11 771.33 106.5 774.14 104.13 775.11 C 101.76 776.08 95.48 778.16 92.23 779.08 C 88.98 779.99 76.72 782.68 74.15 783.6 C 71.58 784.52 69.43 786.59 68.52 787.56 C 67.61 788.53 66.18 791.32 65.75 792.54 C 65.32 793.77 64.62 796.35 64.55 798.91 C 64.48 801.47 64.74 813.42 65.11 816.16 C 65.48 818.9 67.35 823.01 67.97 824.19 C 68.59 825.37 70.16 826.56 70.83 827.05 C 71.5 827.54 73.16 828.4 74.15 828.71 C 75.14 829.02 16.72 829.78 79.96 829.91 C 143.2 830.04 594.91 829.97 657.94 829.91 C 720.97 829.85 660.71 829.72 661.82 829.35 C 662.92 828.98 667.24 827.05 668.18 826.49 C 669.12 825.93 670 824.92 670.49 824.19 C 670.98 823.46 672.27 821.35 672.7 819.76 C 673.13 818.17 674.14 812.86 674.45 809.52 C 674.76 806.18 675.2 793.44 675.56 788.95 C 675.92 784.45 677.42 772.56 677.78 768 C 678.13 763.45 678.7 749.28 678.88 746.88 C 679.06 744.48 679.08 750.6 679.44 745.86 C 679.8 741.13 681.72 709.45 682.2 703.15 C 682.68 696.85 683.56 691.88 683.86 687.74 C 684.16 683.6 684.61 669.75 684.97 664.96 C 685.33 660.16 686.77 649.04 687.19 643.46 C 687.61 637.88 688.61 616.83 688.85 613.48 C 689.09 610.12 689.4 613.24 689.4 612.46 C 689.4 611.68 689.1 607.46 688.85 606.28 C 688.6 605.1 687.65 602.46 687.09 601.58 C 686.53 600.7 684.44 598.72 683.68 598.16 C 682.92 597.6 681.07 596.72 680.08 596.41 C 679.09 596.1 677.37 595.42 674.55 595.3 C 671.72 595.18 657.01 595.11 653.97 595.3 C 650.94 595.49 647.67 596.69 646.5 597.06 C 645.33 597.42 643.97 598.12 643.18 598.72 C 642.39 599.32 640.06 601.38 639.21 602.59 C 638.36 603.8 636.5 606.98 635.34 609.88 C 634.18 612.78 630.75 623.7 628.51 629.34 C 626.27 634.99 617.73 655.53 614.67 662 C 611.61 668.48 603.64 683.43 600.28 689.13 C 596.92 694.82 586.25 710.81 583.67 714.59 C 581.1 718.37 578.28 721.83 576.48 724 C 574.68 726.17 569.31 732.37 567.07 734.61 C 564.83 736.85 558.59 742.44 555.81 744.66 C 553.04 746.89 544.96 753.02 541.42 755.18 C 537.88 757.34 527.02 762.9 523.16 764.59 C 519.29 766.28 509.41 769.68 505.72 770.77 C 502.03 771.86 492.53 773.99 489.11 774.65 C 485.69 775.31 477.6 776.56 474.17 776.86 C 470.74 777.16 459.39 777.29 457.47 777.41 C 455.55 777.53 458.85 777.91 456.45 777.97 C 454.06 778.03 437.73 778.03 435.33 777.97 C 432.93 777.91 436.05 777.47 434.31 777.41 C 432.57 777.35 421.01 777.47 419.28 777.41 C 417.54 777.35 420.36 777.04 418.26 776.86 C 416.16 776.68 403.87 776.23 399.9 775.75 C 395.93 775.27 384.54 773.1 381.64 772.43 C 378.73 771.76 375.12 770.48 373.06 769.57 C 370.99 768.66 364.17 765 362.54 764.04 C 360.91 763.08 359.36 761.94 358.02 760.72 C 356.68 759.5 351.45 754.24 350.18 752.78 C 348.91 751.32 347.14 748.69 346.3 747.25 C 345.46 745.81 343.34 742.05 342.43 739.5 C 341.52 736.95 338.64 727.71 337.91 723.72 C 337.18 719.73 335.93 728.9 335.69 702.69 C 335.45 676.47 335.63 505.78 335.69 481.74 C 335.75 457.69 336.25 508.73 336.25 480.72 C 336.25 452.72 335.69 251.24 335.69 223.24 C 335.69 195.23 336.13 225.4 336.25 222.22 C 336.37 219.04 336.44 198.95 336.8 193.9 C 337.16 188.85 338.9 178.9 339.57 175.63 C 340.24 172.36 341.95 166.46 342.98 163.73 C 344.01 161 347.81 152.74 349.07 150.45 C 350.33 148.16 353.09 144.36 354.6 142.61 C 356.12 140.85 361.09 135.84 363.09 134.21 C 365.09 132.58 370.72 128.89 373.06 127.57 C 375.39 126.25 380.95 123.37 384.68 122.03 C 388.41 120.69 404.39 116.43 407.47 115.21 C 410.55 113.98 412.17 111.92 413.09 110.68 C 414.01 109.45 415.58 104.93 415.95 103.77 C 416.32 102.6 416.45 102.12 416.51 99.89 C 416.57 97.66 416.76 85.81 416.51 83.19 C 416.26 80.57 414.82 76.9 414.2 75.72 C 413.58 74.54 411.91 72.93 410.79 72.31 C 409.67 71.69 439.95 70.25 403.87 70 C 367.79 69.75 113.44 69.94 77.75 70 C 42.06 70.06 75.35 70.24 74.42 70.55 C 73.5 70.86 70.05 72.3 69.17 72.86 Z" fill-rule="evenodd"/>
    <clipPath id="fill-clip" clipPathUnits="userSpaceOnUse">
    <use href="#glyph_004C" transform="translate(0 0)"/>
    </clipPath>
    <linearGradient id="red-fill-gradient" x1="0" y1="0" x2="0" y2="1000" gradientUnits="userSpaceOnUse">
      <stop offset="0%" stop-color="#d21414"/>
      <stop offset="18%" stop-color="#a60000"/>
      <stop offset="52%" stop-color="#780000"/>
      <stop offset="78%" stop-color="#b40000"/>
      <stop offset="100%" stop-color="#4d0000"/>
    </linearGradient>
    <linearGradient id="red-gloss-gradient" x1="0" y1="0" x2="0" y2="1000" gradientUnits="userSpaceOnUse">
      <stop offset="0%" stop-color="#ffffff" stop-opacity="0.55"/>
      <stop offset="34%" stop-color="#ffffff" stop-opacity="0.16"/>
      <stop offset="68%" stop-color="#ffffff" stop-opacity="0.16"/>
      <stop offset="100%" stop-color="#ffffff" stop-opacity="0"/>
    </linearGradient>
    <linearGradient id="silver-gradient" x1="0" y1="0" x2="0" y2="1000" gradientUnits="userSpaceOnUse">
      <stop offset="0%" stop-color="#ffffff"/>
      <stop offset="8%" stop-color="#f8fbff"/>
      <stop offset="18%" stop-color="#92989d"/>
      <stop offset="28%" stop-color="#ffffff"/>
      <stop offset="43%" stop-color="#343a3f"/>
      <stop offset="55%" stop-color="#f6f9fc"/>
      <stop offset="70%" stop-color="#7e858a"/>
      <stop offset="84%" stop-color="#1e252a"/>
      <stop offset="100%" stop-color="#ffffff"/>
    </linearGradient>
    <filter id="drop-shadow" x="-40%" y="-40%" width="180%" height="180%">
      <feDropShadow dx="24" dy="30" stdDeviation="16" flood-color="#050505" flood-opacity="0.65"/>
    </filter>
    <filter id="rim-glow" x="-25%" y="-25%" width="150%" height="150%">
      <feGaussianBlur stdDeviation="3" result="blur"/>
      <feFlood flood-color="#ffffff" flood-opacity="0.34"/>
      <feComposite in2="blur" operator="in"/>
      <feMerge>
        <feMergeNode/>
        <feMergeNode in="SourceGraphic"/>
      </feMerge>
    </filter>
  </defs>
  <style>
      :root {
        --melee3-shadow-layer-paint: #050505;
        --melee3-shadow-layer-width: 112px;
        --melee3-shadow-layer-opacity: 1;
        --melee3-shadow-layer-dx: 0px;
        --melee3-shadow-layer-dy: 0px;
        --melee3-outer-depth-layer-paint: #151515;
        --melee3-outer-depth-layer-width: 92px;
        --melee3-outer-depth-layer-opacity: 1;
        --melee3-outer-depth-layer-dx: 0px;
        --melee3-outer-depth-layer-dy: 0px;
        --melee3-rim-glow-layer-paint: #ffffff;
        --melee3-rim-glow-layer-width: 82px;
        --melee3-rim-glow-layer-opacity: 1;
        --melee3-rim-glow-layer-dx: 0px;
        --melee3-rim-glow-layer-dy: 0px;
        --melee3-rim-dark-underlay-paint: #050505;
        --melee3-rim-dark-underlay-width: 88px;
        --melee3-rim-dark-underlay-opacity: 0.94;
        --melee3-rim-dark-underlay-dx: 0px;
        --melee3-rim-dark-underlay-dy: 0px;
        --melee3-rim-left-plate-paint: #f8fbff;
        --melee3-rim-left-plate-width: 104px;
        --melee3-rim-left-plate-opacity: 0.74;
        --melee3-rim-left-plate-dx: -9px;
        --melee3-rim-left-plate-dy: 7px;
        --melee3-rim-right-plate-paint: #20262c;
        --melee3-rim-right-plate-width: 96px;
        --melee3-rim-right-plate-opacity: 0.62;
        --melee3-rim-right-plate-dx: 16px;
        --melee3-rim-right-plate-dy: -11px;
        --melee3-silver-rim-layer-paint: url(#silver-gradient);
        --melee3-silver-rim-layer-width: 72px;
        --melee3-silver-rim-layer-opacity: 1;
        --melee3-silver-rim-layer-dx: 0px;
        --melee3-silver-rim-layer-dy: 0px;
        --melee3-fill-layer-paint: url(#red-fill-gradient);
        --melee3-fill-layer-opacity: 1;
        --melee3-red-gloss-layer-paint: url(#red-gloss-gradient);
        --melee3-red-gloss-layer-opacity: 0.3;
        --melee3-red-gloss-layer-height-ratio: 0.58;
        --melee3-edge-highlight-layer-paint: #ffffff;
        --melee3-edge-highlight-layer-width: 22px;
        --melee3-edge-highlight-layer-opacity: 0.72;
        --melee3-edge-highlight-layer-dx: 0px;
        --melee3-edge-highlight-layer-dy: 0px;
        --melee3-inner-highlight-layer-paint: #ffffff;
        --melee3-inner-highlight-layer-width: 16px;
        --melee3-inner-highlight-layer-opacity: 0.95;
        --melee3-inner-highlight-layer-dx: 0px;
        --melee3-inner-highlight-layer-dy: 0px;
        --melee3-inner-shadow-layer-paint: #1c1c1c;
        --melee3-inner-shadow-layer-width: 10px;
        --melee3-inner-shadow-layer-opacity: 0.58;
        --melee3-inner-shadow-layer-dx: 0px;
        --melee3-inner-shadow-layer-dy: 0px;
      }
      
      g[data-layer] { transform-box: fill-box; transform-origin: center; }
      #shadow-layer { opacity: var(--melee3-shadow-layer-opacity, 1); transform: translate(var(--melee3-shadow-layer-dx, 0px), var(--melee3-shadow-layer-dy, 0px)); }
      #shadow-layer use { stroke: var(--melee3-shadow-layer-paint); stroke-width: var(--melee3-shadow-layer-width); }
      #outer-depth-layer { opacity: var(--melee3-outer-depth-layer-opacity, 1); transform: translate(var(--melee3-outer-depth-layer-dx, 0px), var(--melee3-outer-depth-layer-dy, 0px)); }
      #outer-depth-layer use { stroke: var(--melee3-outer-depth-layer-paint); stroke-width: var(--melee3-outer-depth-layer-width); }
      #rim-glow-layer { opacity: var(--melee3-rim-glow-layer-opacity, 1); transform: translate(var(--melee3-rim-glow-layer-dx, 0px), var(--melee3-rim-glow-layer-dy, 0px)); }
      #rim-glow-layer use { stroke: var(--melee3-rim-glow-layer-paint); stroke-width: var(--melee3-rim-glow-layer-width); }
      #rim-dark-underlay { opacity: var(--melee3-rim-dark-underlay-opacity, 1); transform: translate(var(--melee3-rim-dark-underlay-dx, 0px), var(--melee3-rim-dark-underlay-dy, 0px)); }
      #rim-dark-underlay use { stroke: var(--melee3-rim-dark-underlay-paint); stroke-width: var(--melee3-rim-dark-underlay-width); }
      #rim-left-plate { opacity: var(--melee3-rim-left-plate-opacity, 1); transform: translate(var(--melee3-rim-left-plate-dx, 0px), var(--melee3-rim-left-plate-dy, 0px)); }
      #rim-left-plate use { stroke: var(--melee3-rim-left-plate-paint); stroke-width: var(--melee3-rim-left-plate-width); }
      #rim-right-plate { opacity: var(--melee3-rim-right-plate-opacity, 1); transform: translate(var(--melee3-rim-right-plate-dx, 0px), var(--melee3-rim-right-plate-dy, 0px)); }
      #rim-right-plate use { stroke: var(--melee3-rim-right-plate-paint); stroke-width: var(--melee3-rim-right-plate-width); }
      #silver-rim-layer { opacity: var(--melee3-silver-rim-layer-opacity, 1); transform: translate(var(--melee3-silver-rim-layer-dx, 0px), var(--melee3-silver-rim-layer-dy, 0px)); }
      #silver-rim-layer use { stroke: var(--melee3-silver-rim-layer-paint); stroke-width: var(--melee3-silver-rim-layer-width); }
      #fill-layer { opacity: var(--melee3-fill-layer-opacity, 1); transform: translate(var(--melee3-fill-layer-dx, 0px), var(--melee3-fill-layer-dy, 0px)); }
      #red-gloss-layer { opacity: var(--melee3-red-gloss-layer-opacity, 1); transform: translate(var(--melee3-red-gloss-layer-dx, 0px), var(--melee3-red-gloss-layer-dy, 0px)); }
      #edge-highlight-layer { opacity: var(--melee3-edge-highlight-layer-opacity, 1); transform: translate(var(--melee3-edge-highlight-layer-dx, 0px), var(--melee3-edge-highlight-layer-dy, 0px)); }
      #edge-highlight-layer use { stroke: var(--melee3-edge-highlight-layer-paint); stroke-width: var(--melee3-edge-highlight-layer-width); }
      #inner-highlight-layer { opacity: var(--melee3-inner-highlight-layer-opacity, 1); transform: translate(var(--melee3-inner-highlight-layer-dx, 0px), var(--melee3-inner-highlight-layer-dy, 0px)); }
      #inner-highlight-layer use { stroke: var(--melee3-inner-highlight-layer-paint); stroke-width: var(--melee3-inner-highlight-layer-width); }
      #inner-shadow-layer { opacity: var(--melee3-inner-shadow-layer-opacity, 1); transform: translate(var(--melee3-inner-shadow-layer-dx, 0px), var(--melee3-inner-shadow-layer-dy, 0px)); }
      #inner-shadow-layer use { stroke: var(--melee3-inner-shadow-layer-paint); stroke-width: var(--melee3-inner-shadow-layer-width); }
  </style>

  <rect id="background" width="754" height="1000" fill="#111827"/>

  <g id="shadow-layer" data-layer="shadow-layer" filter="url(#drop-shadow)">
    <use href="#glyph_004C" transform="translate(0 0)" fill="none" stroke-linejoin="round" stroke-linecap="round"/>
  </g>

  <g id="outer-depth-layer" data-layer="outer-depth-layer">
    <use href="#glyph_004C" transform="translate(0 0)" fill="none" stroke-linejoin="round" stroke-linecap="round"/>
  </g>

  <g id="rim-glow-layer" data-layer="rim-glow-layer" filter="url(#rim-glow)">
    <use href="#glyph_004C" transform="translate(0 0)" fill="none" stroke-linejoin="round" stroke-linecap="round"/>
  </g>

  <g id="rim-dark-underlay" data-layer="rim-dark-underlay">
    <use href="#glyph_004C" transform="translate(0 0)" fill="none" stroke-linejoin="round" stroke-linecap="round"/>
  </g>

  <g id="rim-left-plate" data-layer="rim-left-plate">
    <use href="#glyph_004C" transform="translate(0 0)" fill="none" stroke-linejoin="round" stroke-linecap="round"/>
  </g>

  <g id="rim-right-plate" data-layer="rim-right-plate">
    <use href="#glyph_004C" transform="translate(0 0)" fill="none" stroke-linejoin="round" stroke-linecap="round"/>
  </g>

  <g id="silver-rim-layer" data-layer="silver-rim-layer">
    <use href="#glyph_004C" transform="translate(0 0)" fill="none" stroke-linejoin="round" stroke-linecap="round"/>
  </g>

  <g id="fill-layer" data-layer="fill-layer" clip-path="url(#fill-clip)">
    <rect width="754" height="1000" fill="url(#red-fill-gradient)"/>
  </g>

  <g id="red-gloss-layer" data-layer="red-gloss-layer" clip-path="url(#fill-clip)">
    <rect width="754" height="580" fill="url(#red-gloss-gradient)"/>
  </g>

  <g id="edge-highlight-layer" data-layer="edge-highlight-layer">
    <use href="#glyph_004C" transform="translate(0 0)" fill="none" stroke-linejoin="round" stroke-linecap="round"/>
  </g>

  <g id="inner-highlight-layer" data-layer="inner-highlight-layer">
    <use href="#glyph_004C" transform="translate(0 0)" fill="none" stroke-linejoin="round" stroke-linecap="round"/>
  </g>

  <g id="inner-shadow-layer" data-layer="inner-shadow-layer">
    <use href="#glyph_004C" transform="translate(0 0)" fill="none" stroke-linejoin="round" stroke-linecap="round"/>
  </g>
</svg>
